<?xml version="1.0" encoding="utf-8"?>
<!-- Generator: Adobe Illustrator 24.0.1, SVG Export Plug-In . SVG Version: 6.00 Build 0)  -->
<svg version="1.1" xmlns="http://www.w3.org/2000/svg" xmlns:xlink="http://www.w3.org/1999/xlink" x="0px" y="0px"
	 viewBox="0 0 1080 1080" style="enable-background:new 0 0 1080 1080;" xml:space="preserve">
<style type="text/css">
	.st0{fill:#FFFFFF;}
	.st1{fill:none;stroke:#FFFFFF;stroke-width:15;stroke-miterlimit:10;}
	.st2{fill:none;stroke:#FFFFFF;stroke-width:19;stroke-linecap:round;stroke-miterlimit:10;}
	.st3{fill:none;stroke:#FFFFFF;stroke-width:19;stroke-linecap:round;stroke-linejoin:round;stroke-miterlimit:10;}
</style>
<g id="Camada_1">
	<g>
		<path class="st0" d="M367.32,659.82h-33.79c-0.49-1.95-0.73-4.39-0.73-7.32c0-2.93,0.24-5.37,0.73-7.32h33.79
			c0.49,1.95,0.73,4.39,0.73,7.32C368.05,655.43,367.81,657.87,367.32,659.82z"/>
	</g>
	<path class="st2" d="M610,456.91V537c0,6.6-5.4,12-12,12H451c-6.6,0-12-5.4-12-12V390c0-6.6,5.4-12,12-12h122.79"/>
	<polyline class="st3" points="482,451.85 521.34,489.83 638,373.17 	"/>
</g>
<g id="Camada_2">
	<g>
		<path class="st0" d="M281.82,671.25l-0.12,8.42v0.12c3.58-0.16,6.55-0.24,8.91-0.24h28.79c0,2.93-0.12,5.12-0.37,6.59
			c-1.14,6.02-5.12,9.03-11.96,9.03h-32.94c-3.34,0-5.96-0.98-7.87-2.93c-1.91-1.95-2.87-4.64-2.87-8.05v-71.86l0.85-0.85h52.09
			c0.41,1.87,0.61,4.23,0.61,7.08c0,2.85-0.49,5.69-1.46,8.54h-33.79l0.12,8.66v9.64c2.11-0.08,4.84-0.12,8.17-0.12h19.15
			c0.73,1.95,1.1,4.45,1.1,7.5c0,3.05-0.37,5.63-1.1,7.75h-27.33V671.25z"/>
		<path class="st0" d="M415.77,679.17l16.59-67.71c2.11-0.49,4.82-0.73,8.11-0.73s6.12,0.41,8.48,1.22l0.85,1.1l-23.06,81.74
			c-4.39,0.49-8.83,0.73-13.3,0.73c-4.47,0-7.71-0.57-9.7-1.71c-1.99-1.14-3.48-3.42-4.45-6.83l-20.62-73.81
			c4.39-1.87,8.05-2.81,10.98-2.81c2.93,0,5.16,0.73,6.71,2.2c1.54,1.46,2.76,3.82,3.66,7.08l9.76,35.99
			c1.63,5.69,3.21,13.01,4.76,21.96C414.71,678.65,415.12,679.17,415.77,679.17z"/>
		<path class="st0" d="M478.72,671.25l-0.12,8.42v0.12c3.58-0.16,6.55-0.24,8.91-0.24h28.79c0,2.93-0.12,5.12-0.37,6.59
			c-1.14,6.02-5.12,9.03-11.96,9.03h-32.94c-3.34,0-5.96-0.98-7.87-2.93c-1.91-1.95-2.87-4.64-2.87-8.05v-71.86l0.85-0.85h52.09
			c0.41,1.87,0.61,4.23,0.61,7.08c0,2.85-0.49,5.69-1.46,8.54H478.6l0.12,8.66v9.64c2.11-0.08,4.84-0.12,8.17-0.12h19.15
			c0.73,1.95,1.1,4.45,1.1,7.5c0,3.05-0.37,5.63-1.1,7.75h-27.33V671.25z"/>
		<path class="st0" d="M594.98,610.73l0.85,0.73v82.96c-3.09,0.73-6.73,1.1-10.92,1.1c-4.19,0-7.91-0.24-11.16-0.73l-20.25-44.65
			c-3.42-8.13-5.73-13.87-6.95-17.2l-0.49,0.12c0.98,11.55,1.46,23.38,1.46,35.5v26.23c-2.44,0.49-5.35,0.73-8.72,0.73
			c-3.38,0-6.24-0.24-8.6-0.73v-82.96c2.93-0.73,6.48-1.1,10.67-1.1c4.19,0,7.91,0.24,11.16,0.73L571.8,656l7.69,18.42l0.49-0.12
			c-0.98-11.22-1.46-22.98-1.46-35.26v-17.08c0-4.07,0.81-6.95,2.44-8.66c1.63-1.71,4.27-2.56,7.93-2.56H594.98z"/>
		<path class="st0" d="M645.61,626.84l0.12,9.03v58.93c-2.52,0.49-5.63,0.73-9.33,0.73c-3.7,0-6.81-0.24-9.33-0.73v-58.93l0.12-9.03
			h-0.12l-7.56,0.12h-12.93c-0.41-2.36-0.61-4.94-0.61-7.75s0.2-5.39,0.61-7.75h59.78c0.65,2.12,0.98,4.6,0.98,7.44
			c0,2.85-0.77,4.9-2.32,6.16c-1.55,1.26-4.03,1.89-7.44,1.89h-4.27l-7.56-0.12H645.61z"/>
		<path class="st0" d="M684.89,688.94c-8.7-7.24-13.05-19.17-13.05-35.81c0-16.63,4.35-28.57,13.05-35.81
			c6.26-5.12,13.91-7.69,22.94-7.69c9.03,0,16.67,2.56,22.94,7.69c8.7,7.24,13.05,19.18,13.05,35.81c0,16.63-4.35,28.57-13.05,35.81
			c-6.26,5.12-13.91,7.69-22.94,7.69C698.8,696.62,691.16,694.06,684.89,688.94z M707.77,624.03c-11.02,0-16.53,9.7-16.53,29.1
			s5.51,29.1,16.53,29.1c11.02,0,16.53-9.7,16.53-29.1S718.79,624.03,707.77,624.03z"/>
		<path class="st0" d="M750.41,687.47c0.24-2.6,1.06-5.18,2.44-7.75c1.38-2.56,3.01-4.62,4.88-6.16c8.86,5.37,17.08,8.05,24.64,8.05
			c3.5,0,6.16-0.83,7.99-2.5c1.83-1.67,2.75-3.68,2.75-6.04c0-4.07-2.73-7.32-8.17-9.76l-14.4-6.1
			c-11.55-5.04-17.32-12.48-17.32-22.33c0-7.4,2.81-13.46,8.42-18.18c5.61-4.72,12.99-7.08,22.14-7.08c9.15,0,18.2,2.32,27.14,6.95
			c-0.41,5.61-2.52,10.29-6.34,14.03c-8.3-3.98-15.62-5.98-21.96-5.98c-3.34,0-5.9,0.79-7.69,2.38c-1.79,1.59-2.68,3.4-2.68,5.43
			c0,3.25,2.52,5.98,7.56,8.17l14.64,6.1c5.86,2.52,10.39,5.84,13.6,9.94c3.21,4.11,4.82,8.77,4.82,13.97
			c0,7.73-2.75,13.99-8.24,18.79c-5.49,4.8-13.36,7.2-23.61,7.2c-5.04,0-10.31-0.81-15.8-2.44
			C759.74,692.55,754.8,690.32,750.41,687.47z"/>
	</g>
</g>
</svg>
